<?xml version="1.0" encoding="UTF-8" standalone="no"?>
<svg width="512px" height="512px" viewBox="0 0 512 512" version="1.1" xmlns="http://www.w3.org/2000/svg" xmlns:xlink="http://www.w3.org/1999/xlink" xmlns:sketch="http://www.bohemiancoding.com/sketch/ns">
    <!-- Generator: Sketch 3.3.3 (12081) - http://www.bohemiancoding.com/sketch -->
    <title>Explore</title>
    <desc>Created with Sketch.</desc>
    <defs></defs>
    <g id="Page-1" stroke="none" stroke-width="1" fill="none" fill-rule="evenodd" sketch:type="MSPage">
        <g id="Explore" sketch:type="MSArtboardGroup" fill="#000000">
            <path d="M255.5,332 C329.782299,332 390,297.973641 390,256 C390,214.026359 329.782299,180 255.5,180 C181.217701,180 121,214.026359 121,256 C121,297.973641 181.217701,332 255.5,332 Z M256.5,310 C315.318326,310 363,285.823376 363,256 C363,226.176624 315.318326,202 256.5,202 C197.681674,202 150,226.176624 150,256 C150,285.823376 197.681674,310 256.5,310 Z M256,299 C279.748244,299 299,279.748244 299,256 C299,232.251756 279.748244,213 256,213 C232.251756,213 213,232.251756 213,256 C213,279.748244 232.251756,299 256,299 Z" id="Oval-4" sketch:type="MSShapeGroup"></path>
        </g>
    </g>
</svg>